<?xml version="1.0" encoding="UTF-8"?>
<svg version="1.1" viewBox="0 0 752 752" xmlns="http://www.w3.org/2000/svg">
  <path d="m495.96 271.61-99.383-81.855v46.762h-0.26562c-29.148 1.0391-54.926 5.293-76.852 13.238-24.641 8.8516-44.953 20.875-61.051 35.992-12.73 11.996-22.777 25.648-30.32 40.848-1.9883 4-3.918 8.0078-5.5469 12.219-7.8438 20.219-13.332 42.168-11.734 64.723 0.38281 5.5703 3.4727 22.203 7.0547 22.203 0 0 4.4648-23.301 22.531-49.996 5.5469-8.1562 11.996-15.859 19.438-22.965l0.83984 0.67578 0.003906-1.4648c4.6211-4.3438 9.5312-8.5117 15.098-12.273 15.047-10.199 33.469-18.293 55.242-24.266 17.832-4.8789 38.156-7.7188 60.633-8.7773h4.9531l-0.027343 46.777z"/>
  <path d="m256.05 480.38 99.375 81.859v-46.758h0.28125c29.133-1.0391 54.91-5.3008 76.84-13.246 24.641-8.8516 44.953-20.875 61.051-35.992 12.738-11.996 22.777-25.648 30.32-40.836 1.9883-4.0078 3.918-8.0195 5.5469-12.219 7.8477-20.223 13.332-42.172 11.734-64.73-0.38281-5.582-3.457-22.203-7.043-22.203 0 0-4.4805 23.309-22.547 50.004-5.5469 8.1445-11.996 15.859-19.43 22.953l-0.82812-0.67578v1.4648c-4.6367 4.3477-9.5469 8.5-15.113 12.273-15.047 10.199-33.469 18.305-55.242 24.27-17.832 4.8828-38.156 7.7227-60.633 8.7695h-4.9531l0.027344-46.777z"/>
</svg>
